<svg id="圖層_1" data-name="圖層 1" xmlns="http://www.w3.org/2000/svg" viewBox="0 0 480 480"><defs><style>.cls-1{fill:#3e8dff;}</style></defs><path class="cls-1" d="M246.91,176.86H421.49c10.28,0,18.3,6.73,20,16.85.63,3.86-.25,7.66-.94,11.43-6,32.73-20.76,61-43.38,85.3-22.15,23.75-48.89,40.44-79.47,51.12-2.86,1-5.74,1.94-8.66,2.74-1.27.34-1.53.95-1.52,2.16.07,4.71,0,9.43,0,14.14,0,6.88-4.53,11.44-11.37,11.44H188.2c-6.49,0-11-4.51-11.08-11,0-6-.08-12,0-18,0-1.57-.54-2.12-1.89-2.61a194.33,194.33,0,0,1-67.06-40.79c-24.58-23-41.68-50.54-50.1-83.26a135.64,135.64,0,0,1-3.78-21.07,17.18,17.18,0,0,1,14.44-18.13,28,28,0,0,1,3.89-.27Z"/></svg>